<svg width="40" height="46" fill="none" xmlns="http://www.w3.org/2000/svg"><path d="M35.238 14.065l-.163.986.163-.986zM26.463 4.92l-.988.15.988-.15zM5.351 42.899l.604-.797-.604.797zm-2.335-2.433l.82-.572-.82.572zm33.968 0l-.82-.572.82.572zm-2.335 2.433l-.604-.797.604.797zm0-39.798l.603-.797-.603.797zm2.335 2.433l.82-.572-.82.572zM5.351 3.101l.604.797-.604-.797zM3.016 5.534l.82.572-.82-.572zm23.317-4.47l.036-1-.036 1zM38.94 14.2l1-.033-1 .033zM11.556 30.8a1 1 0 100 2v-2zm6.333 2a1 1 0 100-2v2zM11.556 22a1 1 0 100 2v-2zm16.888 2a1 1 0 100-2v2zM11.556 13.2a1 1 0 100 2v-2zm6.333 2a1 1 0 100-2v2zM35.4 13.078c-4.067-.671-7.295-4.005-7.95-8.307l-1.976.3c.776 5.112 4.633 9.16 9.6 9.98l.325-1.973zM38 20.8v4.4h2v-4.4h-2zM2 25.2v-4.4H0v4.4h2zM20 44c-3.981 0-6.883-.002-9.14-.256-2.236-.253-3.718-.743-4.905-1.642l-1.207 1.595c1.587 1.202 3.471 1.761 5.887 2.034 2.395.27 5.43.269 9.365.269v-2zM0 25.2c0 4.103-.001 7.258.257 9.745.26 2.504.793 4.45 1.939 6.093l1.64-1.144c-.87-1.249-1.346-2.812-1.59-5.155C2.002 32.379 2 29.346 2 25.2H0zm5.955 16.902a9.786 9.786 0 01-2.119-2.208l-1.64 1.144a11.79 11.79 0 002.552 2.659l1.207-1.595zM38 25.2c0 4.146-.001 7.179-.247 9.539-.243 2.343-.719 3.906-1.59 5.155l1.641 1.144c1.146-1.643 1.678-3.589 1.939-6.093C40 32.458 40 29.303 40 25.2h-2zM20 46c3.935 0 6.97.002 9.365-.269 2.416-.273 4.3-.832 5.887-2.035l-1.207-1.594c-1.187.899-2.67 1.39-4.905 1.642-2.256.255-5.159.256-9.14.256v2zm16.164-6.106a9.788 9.788 0 01-2.119 2.208l1.207 1.595a11.79 11.79 0 002.552-2.66l-1.64-1.143zM34.045 3.898a9.79 9.79 0 012.119 2.208l1.64-1.144a11.79 11.79 0 00-2.552-2.658l-1.207 1.594zM20 0c-3.935 0-6.97-.001-9.365.269-2.416.273-4.3.832-5.887 2.035l1.207 1.594C7.142 3 8.625 2.508 10.86 2.256 13.117 2.001 16.019 2 20 2V0zM2 20.8c0-4.146.001-7.179.247-9.539.243-2.343.719-3.906 1.59-5.155L2.195 4.962C1.05 6.605.518 8.551.257 11.055 0 13.542 0 16.697 0 20.8h2zM4.748 2.304a11.79 11.79 0 00-2.552 2.658l1.64 1.144a9.789 9.789 0 012.119-2.208L4.748 2.304zM20 2c2.474 0 4.537 0 6.298.063l.071-1.999C24.565 0 22.462 0 20 0v2zm6.298.063c3.92.14 6.106.593 7.747 1.835l1.207-1.594C33.075.654 30.32.205 26.37.064l-.071 1.999zm-.965-1c0 1.967-.001 3.069.142 4.008l1.977-.3c-.115-.753-.119-1.67-.119-3.707h-2zM40 20.8c0-2.566 0-4.755-.062-6.633l-1.998.066c.06 1.837.06 3.99.06 6.567h2zm-.062-6.633c-.135-4.11-.564-6.953-2.134-9.205l-1.64 1.144c1.205 1.729 1.64 4.035 1.776 8.127l1.998-.066zm-1-.967c-1.958 0-2.827-.005-3.538-.122l-.325 1.973c.913.15 1.981.149 3.864.149v-2zM11.557 32.8h6.333v-2h-6.333v2zm0-8.8h16.888v-2H11.556v2zm0-8.8h6.333v-2h-6.333v2z" fill="#FF5B4A"/></svg>