<svg width="44" height="46" fill="none" xmlns="http://www.w3.org/2000/svg"><path d="M9.31 9.266l-.242.97.241-.97zm7.057-4.046l-.961-.276.96.276zM3.676 18.954l.716-.698-.716.698zm0 8.092l-.716-.698.716.698zm5.633 9.688l.242.97-.242-.97zm7.058 4.046l-.961.276.96-.276zm11.266 0l.961.276-.96-.276zm7.058-4.046l.241-.97-.241.97zm5.633-9.688l-.716.698.716-.698zm0-8.092l-.716-.698.716.698zm-5.633-9.688l-.242-.97.242.97zM27.633 5.22l.961-.276-.96.276zM9.068 10.237c3.583.892 7.242-1.2 8.26-4.74l-1.922-.553C14.688 7.44 12.1 8.93 9.55 8.296l-.483 1.94zm-4.676 8.02c-3.377-3.464-.09-9.207 4.676-8.02l.483-1.941C2.884 6.636-1.862 14.707 2.96 19.652l1.432-1.396zm0 9.487a6.787 6.787 0 000-9.488L2.96 19.652a4.787 4.787 0 010 6.696l1.432 1.396zm4.676 8.02c-4.767 1.186-8.053-4.557-4.676-8.02L2.96 26.348c-4.822 4.945-.076 13.016 6.59 11.356l-.482-1.94zm8.26 4.74c-1.018-3.542-4.677-5.633-8.26-4.74l.483 1.94c2.55-.634 5.137.856 5.855 3.352l1.922-.553zm9.344 0c-1.34 4.662-8.004 4.662-9.344 0l-1.922.552c1.894 6.592 11.294 6.592 13.188 0l-1.922-.553zm8.26-4.74c-3.583-.893-7.242 1.198-8.26 4.74l1.922.552c.718-2.496 3.306-3.986 5.855-3.352l.483-1.94zm4.676-8.02c3.377 3.463.09 9.206-4.676 8.02l-.483 1.94c6.667 1.66 11.413-6.411 6.591-11.356l-1.432 1.396zm0-9.488a6.787 6.787 0 000 9.488l1.432-1.396a4.787 4.787 0 010-6.696l-1.432-1.396zm-4.676-8.02c4.767-1.186 8.053 4.557 4.676 8.02l1.432 1.396c4.822-4.945.076-13.016-6.59-11.356l.482 1.94zm-8.26-4.74c1.018 3.542 4.677 5.633 8.26 4.74l-.483-1.94c-2.55.634-5.137-.856-5.855-3.352l-1.922.553zm1.922-.552c-1.894-6.592-11.294-6.592-13.188 0l1.922.553c1.34-4.663 8.004-4.663 9.344 0l1.922-.553zM14.726 23c0 4 3.263 7.23 7.274 7.23v-2c-2.92 0-5.274-2.348-5.274-5.23h-2zM22 30.23c4.01 0 7.274-3.23 7.274-7.23h-2c0 2.882-2.354 5.23-5.274 5.23v2zM29.274 23c0-4-3.263-7.23-7.274-7.23v2c2.92 0 5.274 2.348 5.274 5.23h2zM22 15.77c-4.01 0-7.274 3.23-7.274 7.23h2c0-2.882 2.354-5.23 5.274-5.23v-2z" fill="#FF5B4A"/></svg>