<svg width="34" height="46" fill="none" xmlns="http://www.w3.org/2000/svg"><path d="M14.448 10.966l-.956-.293.956.293zm-4.128 7.115l.61-.793-.61.793zm.974 3.181l.956.293-.956-.293zm4.129 3.182l-.61-.793.61.793zm3.154 0l.61-.793-.61.793zm4.129-3.182l-.956.293.956-.293zm.975-3.181l-.61-.793.61.793zm-4.13-7.115l.957-.293-.956.293zm3.624 31.323l-.65.76.65-.76zm-1.829-1.565l.65-.76-.65.76zm-8.692 0l-.65-.76.65.76zm-1.829 1.565l.65.76-.65-.76zm17.862-14.664l-1-.016v.019l1-.003zm0-.042l-.758-.652.759.652zm-23.374.001l.759-.652-.759.652zm6.584-13.651c1.634 0 3.03-1.113 3.508-2.674l-1.913-.586c-.24.784-.905 1.26-1.595 1.26v2zm-.967 3.355c-.672-.517-.859-1.347-.629-2.096.229-.747.816-1.26 1.596-1.26v-2c-1.82 0-3.073 1.252-3.508 2.674-.435 1.42-.11 3.164 1.32 4.267l1.22-1.585zm1.32 4.267c.476-1.553-.035-3.277-1.32-4.267l-1.22 1.585c.595.459.87 1.304.628 2.096l1.912.586zm2.563 2.096c-.65.501-1.38.427-1.934 0-.562-.433-.9-1.21-.629-2.096l-1.912-.586c-.532 1.736.143 3.36 1.32 4.267 1.187.914 2.923 1.12 4.375 0l-1.22-1.585zm4.374 0a3.56 3.56 0 00-4.374 0l1.22 1.585a1.56 1.56 0 011.934 0l1.22-1.585zm2.563-2.096c.271.886-.067 1.663-.63 2.096-.553.427-1.283.501-1.933 0l-1.22 1.585c1.453 1.12 3.189.914 4.375 0 1.177-.907 1.852-2.53 1.32-4.267l-1.912.586zm1.32-4.267c-1.285.99-1.796 2.714-1.32 4.267l1.912-.586c-.242-.792.033-1.637.629-2.096l-1.22-1.585zm-.966-3.355c.78 0 1.366.512 1.595 1.259.23.75.043 1.579-.629 2.096l1.221 1.585c1.431-1.103 1.755-2.848 1.32-4.267-.435-1.422-1.688-2.673-3.507-2.673v2zm-3.508-2.674c.478 1.561 1.873 2.674 3.508 2.674v-2c-.691 0-1.356-.476-1.596-1.26l-1.912.586zm1.912-.586a3.638 3.638 0 00-7.016 0l1.912.586c.515-1.679 2.677-1.679 3.192 0l1.912-.586zM2.417 17C2.417 8.69 8.97 2 17 2V0C7.817 0 .417 7.636.417 17h2zM17 2c8.03 0 14.583 6.69 14.583 15h2c0-9.364-7.4-17-16.583-17v2zm10.688 26.67v11.087h2V28.67h-2zM6.313 39.756V28.67h-2v11.088h2zm17.512 1.772l-1.828-1.565-1.3 1.52 1.828 1.564 1.3-1.519zm-11.821-1.565l-1.83 1.565 1.301 1.52 1.829-1.566-1.3-1.519zm9.993 0c-1.018-.87-1.85-1.586-2.588-2.072-.76-.502-1.521-.83-2.409-.83v2c.348 0 .723.114 1.308.5.609.401 1.332 1.017 2.388 1.922l1.3-1.52zm-8.693 1.52c1.057-.905 1.78-1.521 2.388-1.922.585-.386.96-.5 1.308-.5v-2c-.887 0-1.648.328-2.41.83-.736.486-1.57 1.201-2.586 2.072l1.3 1.52zm-8.991-1.727c0 1.53-.003 2.792.131 3.72.132.907.446 1.88 1.423 2.328l.835-1.817c-.018-.009-.048-.02-.096-.11-.06-.115-.13-.322-.182-.689-.109-.749-.111-1.834-.111-3.432h-2zm5.862 1.772c-1.215 1.04-2.042 1.744-2.683 2.15-.313.198-.516.28-.643.31-.1.022-.13.007-.147-.001l-.835 1.817c.977.449 1.92.054 2.695-.437.792-.5 1.75-1.324 2.913-2.32l-1.3-1.519zm17.513-1.772c0 1.599-.003 2.683-.112 3.432-.053.367-.122.574-.182.688-.048.09-.078.102-.096.11l.835 1.818c.977-.449 1.291-1.421 1.423-2.329.134-.927.132-2.188.132-3.719h-2zm-5.163 3.291c1.164.996 2.121 1.82 2.913 2.32.776.491 1.719.886 2.695.437l-.835-1.817c-.018.008-.047.023-.147 0-.127-.029-.33-.111-.643-.31-.64-.405-1.467-1.109-2.683-2.149l-1.3 1.52zm7.163-14.379l-.001-1.046-2 .004v1.042h2zM31.583 17c0 3.813-1.381 7.288-3.654 9.931l1.517 1.304c2.576-2.997 4.137-6.932 4.137-11.235h-2zm-3.654 9.931C25.252 30.045 21.346 32 17 32v2c4.963 0 9.412-2.235 12.446-5.765l-1.517-1.304zm1.758.71V27.6l-2-.033v.042l2 .033zM6.313 28.67v-1.082l-2-.005v1.087h2zM17 32c-4.345 0-8.251-1.954-10.928-5.068l-1.517 1.304C7.59 31.765 12.038 34 17 34v-2zM6.072 26.932C3.799 24.288 2.417 20.812 2.417 17h-2c0 4.303 1.561 8.239 4.138 11.236l1.517-1.304z" fill="#FF5B4A"/></svg>