<svg width="18" height="16" fill="none" xmlns="http://www.w3.org/2000/svg"><path d="M15.88 3.441c.34.764.484 1.806.731 3.596.38 2.748.57 4.122.153 5.189a4.369 4.369 0 01-1.918 2.212C13.851 15 12.47 15 9.708 15H8.292c-2.762 0-4.143 0-5.138-.562a4.37 4.37 0 01-1.918-2.212c-.417-1.067-.227-2.441.153-5.189.231-1.676.372-2.696.669-3.446m13.822-.15a3.222 3.222 0 00-.224-.419A4.362 4.362 0 0013.8 1.398C12.934 1 11.859 1 9.708 1H8.292c-2.15 0-3.226 0-4.09.398a4.362 4.362 0 00-1.858 1.624 3.29 3.29 0 00-.286.569m13.822-.15l-.077.078-.748.75c-2.904 2.917-4.356 4.376-6.16 4.376-1.805 0-3.257-1.459-6.162-4.375l-.675-.68" stroke="#25373F" stroke-width="1.5"/></svg>