<svg width="26" height="24" fill="none" xmlns="http://www.w3.org/2000/svg"><path d="M6.318 17.34l.446-.594-.446.594zm-3.063-7.29l-.722.172.722-.173zm2.862 7.132l.473-.573-.473.573zm18.338-6.585l-.722-.173.722.173zm-2.376 6.265l-.52-.53.52.53zm-.948.748l-.394-.63.394.63zm3.238-11.462l.51-.54-.51.54zm.404.512l-.645.37.645-.37zM1.72.66a.743.743 0 00-1.442.361L1.72.661zm16.017 14.315a.743.743 0 100-1.486v1.486zm-6.695-1.486a.743.743 0 100 1.486v-1.486zM2.175 6.282h18.292V4.797H2.175v1.485zm12.309 11.436h-.563v1.485h.563v-1.485zM3.978 9.876l-1.081-4.51-1.445.347 1.081 4.51 1.445-.347zm9.943 7.842c-2.055 0-3.533-.002-4.686-.136-1.133-.131-1.87-.384-2.47-.836l-.894 1.188c.89.668 1.916.976 3.193 1.124 1.258.146 2.837.145 4.857.145v-1.485zM2.533 10.222c.47 1.965.838 3.5 1.273 4.69.442 1.207.98 2.133 1.838 2.842l.946-1.145c-.579-.479-.996-1.137-1.389-2.208-.399-1.09-.744-2.526-1.223-4.525l-1.445.346zm4.231 6.524a4.908 4.908 0 01-.174-.137l-.946 1.145c.074.062.15.121.227.18l.893-1.188zm16.969-6.322c-.415 1.729-.714 2.972-1.047 3.925-.328.94-.668 1.532-1.128 1.983l1.041 1.06c.684-.67 1.121-1.497 1.49-2.553.364-1.04.681-2.37 1.088-4.07l-1.444-.345zm-9.249 8.78c1.748 0 3.114 0 4.211-.11 1.112-.113 2.018-.346 2.83-.855l-.788-1.259c-.546.342-1.201.535-2.191.635-1.006.102-2.284.103-4.062.103v1.485zm7.074-2.872c-.25.245-.525.463-.821.648l.788 1.26a6.318 6.318 0 001.074-.848l-1.04-1.06zm-1.091-10.05c1.105 0 1.865.002 2.433.071.556.068.804.189.96.335l1.019-1.08c-.49-.462-1.108-.645-1.799-.73-.679-.083-1.547-.081-2.613-.081v1.485zm4.71 4.488c.249-1.037.453-1.881.53-2.56.08-.693.045-1.336-.29-1.92l-1.289.74c.107.185.167.454.103 1.01-.065.569-.24 1.309-.498 2.384l1.444.346zM23.86 6.688c.106.1.197.216.27.342l1.288-.74a2.977 2.977 0 00-.538-.682l-1.02 1.08zM2.895 5.36L1.721.661l-1.442.36L1.454 5.72l1.441-.36zm14.843 8.13h-6.695v1.486h6.695V13.49zm-6.166 8.494a1.175 1.175 0 11-2.35 0 1.175 1.175 0 012.35 0zm7.048 0a1.175 1.175 0 11-2.35 0 1.175 1.175 0 012.35 0z" fill="#25373F"/></svg>