<svg width="20" height="20" fill="none" xmlns="http://www.w3.org/2000/svg"><path d="M6.77 12.17a.75.75 0 101.06 1.06l-1.06-1.06zm6.152-4.03a.75.75 0 10-1.061-1.062l1.06 1.061zM18.25 10A8.25 8.25 0 0110 18.25v1.5A9.75 9.75 0 0019.75 10h-1.5zM10 18.25A8.25 8.25 0 011.75 10H.25A9.75 9.75 0 0010 19.75v-1.5zM1.75 10A8.25 8.25 0 0110 1.75V.25A9.75 9.75 0 00.25 10h1.5zM10 1.75A8.25 8.25 0 0118.25 10h1.5A9.75 9.75 0 0010 .25v1.5zM7.83 13.23l5.091-5.09-1.06-1.062L6.77 12.17l1.06 1.06zM6.4 7.3a.9.9 0 101.8 0 .9.9 0 00-1.8 0zm5.4 5.4a.9.9 0 101.8 0 .9.9 0 00-1.8 0z" fill="#FF5B4A"/></svg>