<svg width="16" height="20" fill="none" xmlns="http://www.w3.org/2000/svg"><path d="M10.238 17.025l-.59-.463.59.463zm-4.766 0l-.59.463.59-.463zM7.855 19v-.75.75zm6.106-10.623c0 1.021-.536 2.407-1.397 3.93-.845 1.493-1.938 3.007-2.916 4.255l1.18.926c1.001-1.277 2.145-2.858 3.042-4.443.88-1.556 1.59-3.232 1.59-4.668h-1.5zm-7.898 8.185c-.979-1.248-2.072-2.762-2.916-4.256-.861-1.522-1.397-2.908-1.397-3.929H.25c0 1.436.711 3.112 1.591 4.668.897 1.585 2.04 3.166 3.041 4.443l1.18-.926zM1.75 8.377c0-3.713 2.784-6.627 6.105-6.627V.25C3.605.25.25 3.941.25 8.377h1.5zM7.855 1.75c3.321 0 6.106 2.914 6.106 6.627h1.5C15.46 3.941 12.107.25 7.855.25v1.5zm1.793 14.812c-.533.68-.876 1.112-1.18 1.389-.272.247-.438.299-.613.299v1.5c.66 0 1.17-.278 1.622-.689.42-.381.852-.936 1.351-1.573l-1.18-.926zm-4.766.926c.5.637.932 1.192 1.352 1.573.453.411.962.689 1.621.689v-1.5c-.174 0-.34-.052-.612-.299-.305-.277-.648-.71-1.18-1.389l-1.18.926zm-.347-8.776a3.32 3.32 0 003.32 3.321v-1.5a1.82 1.82 0 01-1.82-1.82h-1.5zm3.32 3.321a3.32 3.32 0 003.321-3.32h-1.5a1.82 1.82 0 01-1.82 1.82v1.5zm3.321-3.32a3.32 3.32 0 00-3.32-3.321v1.5a1.82 1.82 0 011.82 1.82h1.5zm-3.32-3.321a3.32 3.32 0 00-3.321 3.32h1.5a1.82 1.82 0 011.82-1.82v-1.5z" fill="#25373F"/></svg>