<svg width="18" height="18" fill="none" xmlns="http://www.w3.org/2000/svg"><path d="M14.483 13.422a.75.75 0 10-1.06 1.06l1.06-1.06zm1.987 4.108a.75.75 0 001.06-1.06l-1.06 1.06zm-3.048-3.047l3.048 3.047 1.06-1.06-3.047-3.048-1.06 1.06zm-5.565-.519A6.107 6.107 0 011.75 7.857H.25a7.607 7.607 0 007.607 7.607v-1.5zm6.107-6.107a6.107 6.107 0 01-6.107 6.107v1.5a7.607 7.607 0 007.607-7.607h-1.5zM7.857 1.75a6.107 6.107 0 016.107 6.107h1.5A7.607 7.607 0 007.857.25v1.5zm0-1.5A7.607 7.607 0 00.25 7.857h1.5A6.107 6.107 0 017.857 1.75V.25z" fill="#25373F"/></svg>