<svg width="20" height="26" fill="none" xmlns="http://www.w3.org/2000/svg"><path d="M14.31 6.053a4.31 4.31 0 01-4.31 4.31v1.485c3.2 0 5.796-2.595 5.796-5.795H14.31zM10 10.363a4.31 4.31 0 01-4.31-4.31H4.205c0 3.2 2.594 5.795 5.795 5.795v-1.486zm-4.31-4.31A4.31 4.31 0 0110 1.743V.257a5.795 5.795 0 00-5.795 5.796H5.69zM10 1.743a4.31 4.31 0 014.31 4.31h1.486A5.797 5.797 0 0010 .257v1.486zM6.21 15.638h7.58v-1.486H6.21v1.486zm7.58 8.62H6.21v1.485h7.58v-1.486zm-7.58 0a4.31 4.31 0 01-4.31-4.31H.416c0 3.2 2.595 5.795 5.796 5.795v-1.486zm11.89-4.31a4.31 4.31 0 01-4.31 4.31v1.485c3.2 0 5.795-2.595 5.795-5.796h-1.486zm-4.31-4.31a4.31 4.31 0 014.31 4.31h1.485a5.796 5.796 0 00-5.796-5.796v1.486zm-7.58-1.486a5.795 5.795 0 00-5.795 5.795h1.486a4.31 4.31 0 014.31-4.31v-1.485z" fill="#25373F"/></svg>