<svg width="28" height="30" fill="none" xmlns="http://www.w3.org/2000/svg"><path d="M23.781 20.888l-.789-.433.79.433zm-19.572 0l-.79.433.79-.433zM1.246 9.82l-.899.045.899-.045zM21.46 24.126l.68.589-.68-.59zm-14.93 0l.68-.59-.68.59zM26.756 9.007l.899.035-.9-.035zm-7.799 3.922a.9.9 0 00-1.401-1.13l1.401 1.13zm-3.572 3l-.7-.566.7.565zm-4.91 0l-.702.564.701-.565zm-.04-1.485a.9.9 0 10-1.402 1.13l1.401-1.13zm15.421-5.471c-.112 2.944-.686 7.513-2.864 11.482l1.578.866c2.373-4.325 2.968-9.22 3.085-12.28l-1.799-.068zm-2.864 11.482c-.56 1.02-1.333 2.065-2.213 3.082l1.361 1.178c.932-1.076 1.79-2.227 2.43-3.394l-1.578-.866zM7.211 23.537c-.88-1.017-1.653-2.062-2.213-3.082l-1.578.866c.64 1.167 1.499 2.318 2.43 3.394l1.36-1.178zm-2.213-3.082C2.88 16.597 2.28 12.474 2.145 9.775l-1.798.09c.144 2.844.775 7.268 3.073 11.456l1.578-.866zM4.294 7.7h.438V5.9h-.438v1.8zm18.55-.83h.837v-1.8h-.838v1.8zm-3.387-3.385a3.386 3.386 0 003.386 3.386v-1.8c-.875 0-1.586-.71-1.586-1.586h-1.8zM4.732 7.701a3.8 3.8 0 003.8-3.8h-1.8a2 2 0 01-2 2v1.8zM10.532.1a3.8 3.8 0 00-3.8 3.8h1.8a2 2 0 012-2V.1zM2.146 9.774c-.057-1.129.874-2.073 2.149-2.073V5.9C2.136 5.9.23 7.566.347 9.865l1.798-.09zM20.78 23.537c-1.43 1.652-2.412 2.78-3.42 3.518-.95.696-1.925 1.045-3.364 1.045v1.8c1.808 0 3.158-.463 4.427-1.392 1.21-.886 2.336-2.197 3.718-3.793l-1.36-1.178zM5.85 24.715c1.383 1.596 2.51 2.907 3.72 3.793 1.268.929 2.618 1.392 4.426 1.392v-1.8c-1.438 0-2.414-.35-3.363-1.045-1.009-.738-1.99-1.866-3.421-3.518L5.85 24.715zM17.873 1.9c.875 0 1.585.71 1.585 1.586h1.8A3.386 3.386 0 0017.871.1v1.8zm9.783 7.142c.088-2.29-1.806-3.97-3.974-3.97v1.8c1.272 0 2.22.952 2.175 2.101l1.799.069zm-10.1 2.758l-2.87 3.563 1.4 1.13 2.872-3.564-1.401-1.13zm-6.38 3.563l-.74-.919-1.402 1.13.74.919 1.402-1.13zm3.51 0c-.587.728-.968 1.197-1.288 1.496-.304.284-.422.288-.467.288v1.8c.703 0 1.243-.35 1.696-.772.435-.407.908-.998 1.46-1.682l-1.402-1.13zm-4.912 1.13c.552.684 1.025 1.275 1.46 1.682.453.422.993.772 1.697.772v-1.8c-.046 0-.164-.004-.468-.288-.32-.299-.7-.768-1.287-1.496l-1.402 1.13zm.76-14.593h7.339V.1h-7.34v1.8z" fill="#25373F"/></svg>