<svg width="30" height="30" fill="none" xmlns="http://www.w3.org/2000/svg"><path d="M3.365 8.623l-.871-.225.871.225zm5.212-4.905l.17.884-.17-.884zm3.074 12.983l-.254-.864.254.864zm1.648 1.648l.864.254-.864-.254zm8.078 8.286l.225.871-.225-.871zm4.905-5.212l-.884-.17.884.17zM28.895 7.8l.884.17-.884-.17zM22.2 1.105l-.17-.884.17.884zM5.628 23.1a.9.9 0 001.273 1.273L5.628 23.1zm3.38-.833a.9.9 0 00-1.274-1.273l1.273 1.273zM6.68 28.364a.9.9 0 001.273 1.272L6.68 28.364zm3.38-.834a.9.9 0 00-1.274-1.272l1.273 1.273zM.363 22.047a.9.9 0 001.272 1.273L.364 22.046zm3.378-.833A.9.9 0 002.47 19.94l1.272 1.273zm11.793-8.02a.9.9 0 101.273 1.272l-1.273-1.273zm5.842-4.57h.9v-.9h-.9v.9zm-.9 4.18a.9.9 0 001.8 0h-1.8zm-3.528-5.08a.9.9 0 100 1.8v-1.8zm11.062-.093l-2.613 13.624 1.768.339L29.778 7.97l-1.768-.34zM8.746 4.602L22.37 1.989 22.031.221 8.407 2.834l.34 1.768zm-4.51 4.247a5.804 5.804 0 014.51-4.247l-.339-1.768a7.604 7.604 0 00-5.913 5.564l1.742.45zm7.161 6.988c-4.263 1.254-8.278-2.663-7.16-6.988l-1.743-.45c-1.461 5.655 3.784 10.82 9.411 9.165l-.508-1.727zm2.766 2.766c.497-1.692-1.074-3.263-2.766-2.766l.508 1.727a.427.427 0 01.53.53l1.728.509zm6.988 7.16c-4.325 1.118-8.242-2.897-6.988-7.16l-1.727-.508c-1.655 5.627 3.51 10.872 9.166 9.411l-.45-1.742zm4.247-4.51a5.804 5.804 0 01-4.247 4.51l.45 1.743a7.604 7.604 0 005.565-5.913l-1.768-.34zm4.38-13.284C30.66 3.374 26.627-.66 22.032.22l.34 1.768c3.345-.641 6.281 2.295 5.64 5.64l1.768.34zM6.902 24.372l2.106-2.106-1.273-1.273-2.106 2.106 1.273 1.273zm1.053 5.264l2.106-2.105-1.273-1.273-2.106 2.106 1.273 1.272zM1.636 23.32l2.106-2.106L2.47 19.94.364 22.046l1.272 1.273zm15.172-8.854l5.205-5.205-1.273-1.273-5.205 5.205 1.273 1.273zm3.669-5.842v4.18h1.8v-4.18h-1.8zm.9-.9h-4.428v1.8h4.428v-1.8z" fill="#25373F"/></svg>