<svg width="30" height="30" fill="none" xmlns="http://www.w3.org/2000/svg"><path d="M18.994 24.583c2.501-3.803 2.08-8.966-1.261-12.312a9.783 9.783 0 00-12.393-1.2m13.654 13.512a9.84 9.84 0 01-1.261 1.548c-2.224 2.227-6.94 4.151-10.766 1.783-.213-.131-.32-.197-.4-.23a.88.88 0 00-.436-.065 2.457 2.457 0 00-.38.083c-1.231.32-1.847.479-2.29.389a1.959 1.959 0 01-1.528-1.53c-.09-.444.07-1.06.388-2.293.051-.196.076-.294.083-.381a.888.888 0 00-.067-.438 3.158 3.158 0 00-.229-.398c-2.373-3.824-.536-8.46 1.782-10.78a9.843 9.843 0 011.45-1.2m13.654 13.512l.206-.035a8.69 8.69 0 002.555-1.066c.258-.16.388-.24.485-.279a1.07 1.07 0 01.53-.08c.104.008.223.039.46.1 1.496.389 2.243.582 2.782.473a2.379 2.379 0 001.855-1.858c.11-.54-.084-1.288-.471-2.785-.062-.237-.093-.356-.1-.462-.016-.2.006-.344.08-.531.04-.098.119-.227.278-.484 2.882-4.643.652-10.272-2.163-13.09-4.642-4.648-12.168-4.648-16.81 0a11.853 11.853 0 00-3.34 6.586" stroke="#25373F" stroke-width="1.8"/><path d="M13.6 19.2a1.4 1.4 0 102.8 0 1.4 1.4 0 00-2.8 0zm-4.2 0a1.4 1.4 0 102.8 0 1.4 1.4 0 00-2.8 0zm-4.2 0a1.4 1.4 0 102.8 0 1.4 1.4 0 00-2.8 0z" fill="#25373F"/></svg>