<svg width="16" height="16" fill="none" xmlns="http://www.w3.org/2000/svg"><path d="M8 5h-.5.5zm0 9h.5H8zm-3.608-3.31a.5.5 0 10-.784.62l.784-.62zm1.006 2.073l.392-.31-.392.31zm5.204 0l-.392-.31.392.31zm1.79-1.452a.5.5 0 10-.784-.622l.784.622zm-4.643 3.67l-.078.493.078-.494zm.502 0l.078.493-.078-.494zM8 2h.5H8zM3.608 4.69a.5.5 0 10.784.62l-.784-.62zm1.79-1.453l-.392-.31.392.31zm5.204 0l-.392.31.392-.31zm1.006 2.074a.5.5 0 10.784-.622l-.784.622zM7.75 1.02L7.671.526l.078.494zm.502 0L8.33.526l-.078.494zM7.5 5v9h1V5h-1zm-3.892 6.31l1.398 1.764.784-.622-1.398-1.763-.784.622zm7.386 1.764l1.398-1.763-.784-.622-1.398 1.763.784.622zm-5.988 0c.55.693.988 1.247 1.377 1.637.39.392.792.684 1.288.763l.157-.988c-.184-.029-.4-.143-.737-.48-.339-.34-.736-.841-1.301-1.554l-.784.622zm5.204-.622c-.565.713-.962 1.213-1.301 1.553-.337.338-.553.452-.737.481l.157.988c.496-.079.898-.37 1.288-.763.389-.39.827-.944 1.377-1.637l-.784-.622zM8.5 5V2h-1v3h1zm-4.108.31L5.79 3.549l-.784-.622L3.608 4.69l.784.622zm5.818-1.762l1.398 1.763.784-.622-1.398-1.763-.784.622zm-4.42 0c.565-.713.962-1.213 1.301-1.553.337-.338.553-.452.737-.481L7.671.526c-.496.08-.898.37-1.288.763-.389.39-.827.944-1.377 1.637l.784.622zm5.204-.622c-.55-.693-.988-1.247-1.377-1.637C9.227.897 8.825.605 8.33.526l-.157.988c.184.029.4.143.737.48.339.34.736.841 1.301 1.554l.784-.622zM7.828 1.514A.998.998 0 018 1.5v-1c-.11 0-.22.009-.33.026l.158.988zM8 1.5c.057 0 .115.005.172.014l.157-.988A2.092 2.092 0 008 .5v1zm.5.5V1h-1v1h1zm-.83 13.474c.11.017.22.026.33.026v-1c-.057 0-.115-.005-.172-.014l-.157.988zM8 15.5c.11 0 .22-.009.33-.026l-.158-.988A.998.998 0 018 14.5v1zM7.5 14v1h1v-1h-1z" fill="#25373F"/></svg>