<svg width="23" height="21" fill="none" xmlns="http://www.w3.org/2000/svg"><path d="M5.932 15.45l.446-.594-.446.594zM3.38 9.374l-.723.173.723-.173zm2.384 5.944l.473-.573-.473.573zm15.282-5.487l-.723-.173.723.173zm-1.98 5.221l-.52-.53.52.53zm-.79.623l-.394-.63.394.63zm2.698-9.551l.51-.54-.51.54zm.337.426l-.645.37.645-.37zM2.22 1.52a.743.743 0 00-1.442.361l1.442-.36zm13.228 12.083a.743.743 0 100-1.486v1.486zm-5.58-1.486a.743.743 0 100 1.486v-1.486zM2.48 6.359h15.243V4.873H2.48V6.36zm10.258 9.282h-.47v1.486h.47V15.64zM4.102 9.2l-.9-3.758-1.446.346.901 3.758L4.102 9.2zm8.165 6.44c-1.715 0-2.938-.001-3.89-.112-.933-.108-1.523-.315-1.999-.673l-.893 1.188c.765.575 1.645.836 2.72.96 1.058.124 2.382.122 4.062.122V15.64zm-9.61-6.094c.392 1.635.7 2.923 1.065 3.922.372 1.017.83 1.812 1.569 2.422l.946-1.146c-.459-.38-.797-.905-1.12-1.787-.329-.9-.615-2.088-1.015-3.757l-1.445.346zm3.721 5.31a3.965 3.965 0 01-.14-.112l-.947 1.146c.063.052.128.103.194.153l.893-1.188zm13.945-5.2c-.346 1.444-.593 2.472-.868 3.26-.27.774-.545 1.247-.91 1.605l1.041 1.06c.589-.578.961-1.286 1.272-2.175.305-.875.571-1.99.91-3.403l-1.445-.346zm-7.586 7.47c1.454 0 2.6 0 3.521-.093.937-.095 1.713-.292 2.412-.73l-.788-1.259c-.433.271-.958.429-1.773.511-.83.084-1.888.085-3.372.085v1.486zm5.808-2.605a3.904 3.904 0 01-.663.523l.788 1.26c.33-.207.638-.45.916-.723l-1.04-1.06zm-.823-8.163c.924 0 1.55.001 2.013.058.452.055.628.15.73.247l1.019-1.08c-.436-.412-.981-.57-1.569-.642-.575-.07-1.307-.069-2.193-.069V6.36zm4.046 3.645c.207-.861.378-1.573.444-2.149.067-.588.041-1.155-.257-1.675l-1.289.74c.07.121.122.314.07.766-.053.465-.197 1.073-.413 1.972l1.445.346zm-1.304-3.34c.08.075.148.161.202.256l1.289-.74a2.606 2.606 0 00-.471-.597l-1.02 1.08zM3.2 5.436l-.98-3.915-1.44.36.978 3.915 1.442-.36zm12.249 6.681h-5.58v1.486h5.58v-1.486zM10.31 19.32a.979.979 0 11-1.958 0 .979.979 0 011.957 0zm5.873 0a.979.979 0 11-1.958 0 .979.979 0 011.958 0z" fill="#fff"/></svg>