<svg width="22" height="18" fill="none" xmlns="http://www.w3.org/2000/svg"><path d="M1 5.444A4.444 4.444 0 015.444 1h11.112A4.444 4.444 0 0121 5.444c0 .544-.312 1.039-.801 1.274l-.488.234c-1.718.825-1.718 3.271 0 4.096l.488.234c.49.235.801.73.801 1.274A4.444 4.444 0 0116.556 17H5.444A4.444 4.444 0 011 12.556c0-.544.312-1.039.801-1.274l.488-.234c1.718-.825 1.718-3.271 0-4.096L1.8 6.718A1.413 1.413 0 011 5.444z" stroke="#25373F" stroke-width="1.8"/><path d="M10.018 6.737a1.023 1.023 0 011.964 0c.139.44.535.738.983.738 1 0 1.417 1.323.607 1.93a1.087 1.087 0 00-.375 1.193c.31.983-.78 1.801-1.59 1.193a1.006 1.006 0 00-1.214 0c-.81.608-1.9-.21-1.59-1.193a1.087 1.087 0 00-.375-1.193c-.81-.607-.394-1.93.607-1.93.448 0 .844-.298.982-.738z" stroke="#25373F" stroke-width="1.8"/></svg>