<svg width="20" height="22" fill="none" xmlns="http://www.w3.org/2000/svg"><path d="M3.061 20.045l.53-.728-.53.728zM1.955 18.94l.728-.53-.728.53zm16.09 0l-.728-.53.728.53zm-1.106 1.106l-.53-.728.53.728zm0-18.09l-.53.728.53-.728zm1.106 1.106l-.728.53.728-.53zM3.061 1.955l.53.728-.53-.728zM1.955 3.06l.728.53-.728-.53zM6 14.1a.9.9 0 100 1.8v-1.8zm8 1.8a.9.9 0 100-1.8v1.8zm-8-5.8a.9.9 0 100 1.8v-1.8zm8 1.8a.9.9 0 100-1.8v1.8zM6 6.1a.9.9 0 100 1.8V6.1zm8 1.8a.9.9 0 100-1.8v1.8zm4.1 2.1v2h1.8v-2h-1.8zM1.9 12v-2H.1v2h1.8zm8.1 8.1c-1.895 0-3.244-.001-4.286-.114-1.025-.111-1.646-.322-2.124-.669l-1.058 1.456c.836.608 1.81.875 2.988 1.002 1.162.126 2.625.125 4.48.125v-1.8zM.1 12c0 1.855-.001 3.318.125 4.48.127 1.178.394 2.152 1.002 2.988l1.456-1.058c-.347-.478-.558-1.1-.669-2.124C1.901 15.244 1.9 13.895 1.9 12H.1zm3.49 7.317a4.1 4.1 0 01-.907-.907l-1.456 1.058a5.9 5.9 0 001.305 1.305l1.058-1.456zM18.1 12c0 1.895-.001 3.244-.114 4.286-.111 1.025-.322 1.646-.669 2.124l1.456 1.058c.608-.836.875-1.81 1.002-2.988.126-1.162.125-2.625.125-4.48h-1.8zM10 21.9c1.855 0 3.318.001 4.48-.125 1.178-.127 2.152-.394 2.988-1.002l-1.058-1.456c-.478.347-1.1.558-2.124.669-1.042.113-2.391.114-4.286.114v1.8zm7.317-3.49a4.1 4.1 0 01-.907.907l1.058 1.456c.5-.364.941-.804 1.305-1.305l-1.456-1.058zM10 1.9c1.895 0 3.244.001 4.286.114 1.025.111 1.646.322 2.124.669l1.058-1.456C16.632.619 15.658.352 14.48.225 13.318.099 11.855.1 10 .1v1.8zm9.9 8.1c0-1.855.001-3.318-.125-4.48-.127-1.178-.394-2.152-1.002-2.988L17.317 3.59c.347.478.558 1.099.669 2.124.113 1.042.114 2.391.114 4.286h1.8zm-3.49-7.317a4.1 4.1 0 01.907.907l1.456-1.058a5.9 5.9 0 00-1.305-1.305L16.41 2.683zM10 .1C8.145.1 6.682.099 5.52.225 4.342.352 3.368.619 2.532 1.227L3.59 2.683c.478-.347 1.099-.558 2.124-.669C6.756 1.901 8.105 1.9 10 1.9V.1zM1.9 10c0-1.895.001-3.244.114-4.286.111-1.025.322-1.646.669-2.124L1.227 2.532C.619 3.368.352 4.342.225 5.52.099 6.682.1 8.145.1 10h1.8zm.632-8.773a5.9 5.9 0 00-1.305 1.305L2.683 3.59a4.1 4.1 0 01.907-.907L2.532 1.227zM6 15.9h8v-1.8H6v1.8zm0-4h8v-1.8H6v1.8zm0-4h8V6.1H6v1.8z" fill="#25373F"/></svg>