<svg width="18" height="22" fill="none" xmlns="http://www.w3.org/2000/svg"><path d="M12.182 5.21c0 1.855-1.45 3.311-3.182 3.311v1.8c2.778 0 4.982-2.315 4.982-5.11h-1.8zM9 8.522c-1.73 0-3.181-1.456-3.181-3.31h-1.8c0 2.795 2.204 5.11 4.981 5.11v-1.8zM5.82 5.211C5.819 3.356 7.269 1.9 9 1.9V.1C6.223.1 4.02 2.415 4.02 5.21h1.8zM9 1.9c1.731 0 3.182 1.456 3.182 3.31h1.8C13.982 2.416 11.778.1 9 .1v1.8zM5.94 13.479h6.123v-1.8H5.939v1.8zm6.123 6.621H5.939v1.8h6.123v-1.8zm-6.123 0c-1.73 0-3.182-1.456-3.182-3.31h-1.8c0 2.795 2.205 5.11 4.982 5.11v-1.8zm9.304-3.31c0 1.854-1.45 3.31-3.181 3.31v1.8c2.777 0 4.981-2.315 4.981-5.11h-1.8zm-3.181-3.311c1.73 0 3.181 1.456 3.181 3.31h1.8c0-2.795-2.204-5.11-4.981-5.11v1.8zm-6.123-1.8c-2.777 0-4.982 2.315-4.982 5.11h1.8c0-1.855 1.451-3.31 3.182-3.31v-1.8z" fill="#fff"/></svg>