<svg width="18" height="20" fill="none" xmlns="http://www.w3.org/2000/svg"><path d="M9 2.25a.75.75 0 000 1.5v-1.5zm8 1.5a.75.75 0 000-1.5v1.5zm-8 12.5a.75.75 0 000 1.5v-1.5zm8 1.5a.75.75 0 000-1.5v1.5zm-8-7a.75.75 0 000-1.5v1.5zm-8-1.5a.75.75 0 000 1.5v-1.5zm8-5.5h8v-1.5H9v1.5zm0 14h8v-1.5H9v1.5zm0-8.5H1v1.5h8v-1.5zM.25 3A2.75 2.75 0 003 5.75v-1.5c-.69 0-1.25-.56-1.25-1.25H.25zM3 5.75A2.75 2.75 0 005.75 3h-1.5c0 .69-.56 1.25-1.25 1.25v1.5zM5.75 3A2.75 2.75 0 003 .25v1.5c.69 0 1.25.56 1.25 1.25h1.5zM3 .25A2.75 2.75 0 00.25 3h1.5c0-.69.56-1.25 1.25-1.25V.25zM.25 17A2.75 2.75 0 003 19.75v-1.5c-.69 0-1.25-.56-1.25-1.25H.25zM3 19.75A2.75 2.75 0 005.75 17h-1.5c0 .69-.56 1.25-1.25 1.25v1.5zM5.75 17A2.75 2.75 0 003 14.25v1.5c.69 0 1.25.56 1.25 1.25h1.5zM3 14.25A2.75 2.75 0 00.25 17h1.5c0-.69.56-1.25 1.25-1.25v-1.5zM17.75 10A2.75 2.75 0 0015 7.25v1.5c.69 0 1.25.56 1.25 1.25h1.5zM15 7.25A2.75 2.75 0 0012.25 10h1.5c0-.69.56-1.25 1.25-1.25v-1.5zM12.25 10A2.75 2.75 0 0015 12.75v-1.5c-.69 0-1.25-.56-1.25-1.25h-1.5zM15 12.75A2.75 2.75 0 0017.75 10h-1.5c0 .69-.56 1.25-1.25 1.25v1.5z" fill="#25373F"/></svg>